PathFileType	4	(X/Y/Z)	C:\Users\Basilio\Documents\Thesis Gigler\squatting_fais\c3dfiles\040\SLS_pre_back4\markers_experimental.trc
DataRate	CameraRate	NumFrames	NumMarkers	Units	OrigDataRate	OrigDataStartFrame	OrigNumFrames
200.000000	200.000000	4	63	mm	200.000000	624	1249
Frame#	Time	FHD			LBHD			RBHD			C7			T10			CLAV			LSHO			LUUPA			LMUPA			LDUPA			LLEP			LMEP			LRAD			LUL			LRFIN			RSHO			RUPA1			RMUPA			RDUPA			RLEP			RMEP			RRAD			RUL			RUFIN			LASI			RASI			USACR			LSACR			RSACR			LTHI1			LTHI2			LTHI3			LTHI4			LLFC			LMFC			LTIB1			LTIB2			LTIB3			LTIB4			LLMAL			LMMAL			LHEE			LMT1			LMT2			LMT5			RTHI			RTHI2			RTHI3			RTHI4			RLFC			RMFC			RTIB1			RTIB2			RTIB3			RTIB4			RLMAL			RMMAL			RHEE			RMT1			RMT2			RMT5			*61			*62			
		X1	Y1	Z1	X2	Y2	Z2	X3	Y3	Z3	X4	Y4	Z4	X5	Y5	Z5	X6	Y6	Z6	X7	Y7	Z7	X8	Y8	Z8	X9	Y9	Z9	X10	Y10	Z10	X11	Y11	Z11	X12	Y12	Z12	X13	Y13	Z13	X14	Y14	Z14	X15	Y15	Z15	X16	Y16	Z16	X17	Y17	Z17	X18	Y18	Z18	X19	Y19	Z19	X20	Y20	Z20	X21	Y21	Z21	X22	Y22	Z22	X23	Y23	Z23	X24	Y24	Z24	X25	Y25	Z25	X26	Y26	Z26	X27	Y27	Z27	X28	Y28	Z28	X29	Y29	Z29	X30	Y30	Z30	X31	Y31	Z31	X32	Y32	Z32	X33	Y33	Z33	X34	Y34	Z34	X35	Y35	Z35	X36	Y36	Z36	X37	Y37	Z37	X38	Y38	Z38	X39	Y39	Z39	X40	Y40	Z40	X41	Y41	Z41	X42	Y42	Z42	X43	Y43	Z43	X44	Y44	Z44	X45	Y45	Z45	X46	Y46	Z46	X47	Y47	Z47	X48	Y48	Z48	X49	Y49	Z49	X50	Y50	Z50	X51	Y51	Z51	X52	Y52	Z52	X53	Y53	Z53	X54	Y54	Z54	X55	Y55	Z55	X56	Y56	Z56	X57	Y57	Z57	X58	Y58	Z58	X59	Y59	Z59	X60	Y60	Z60	X61	Y61	Z61	X62	Y62	Z62	X63	Y63	Z63	

625	3.12	61.79077911376955	1344.076416015625	-1232.20361328125	-64.27890014648439	1295.421997070313	-1271.025146484375	-116.4678726196289	1256.994750976563	-1138.245239257813	-131.744140625	1190.141967773438	-1189.11376953125	-361.8522338867188	1001.924682617188	-1134.99462890625	-60.35644912719728	1065.8203125	-1190.100463867188	-65.08457183837892	1153.529052734375	-1318.742431640625	71.07836914062501	1100.076416015625	-1408.77734375	101.9543533325196	1101.729858398438	-1371.13525390625	135.4680480957032	1076.024780273438	-1417.04296875	187.3035736083985	1041.686645507813	-1425.85400390625	168.675033569336	983.1251220703127	-1400.71484375	nan	nan	nan	463.2004699707032	1012.832153320313	-1402.015869140625	558.1185302734376	1001.520080566406	-1339.370849609375	-45.44868469238282	1155.624389648438	-1073.809204101563	98.34517669677737	1080.042724609375	-997.437438964844	126.550407409668	1093.619506835938	-1035.5546875	161.6360778808594	1052.095581054688	-1007.055847167969	219.4633483886719	1030.445678710938	-1024.657348632813	194.536117553711	972.330261230469	-1067.095581054688	465.8916320800782	1030.981201171875	-1189.84521484375	481.7691345214845	1013.816040039063	-1117.341552734375	559.3516235351564	1030.088745117188	-1198.848388671875	-348.1442260742188	776.866882324219	-1232.052734375	-354.0216979980469	754.0050048828126	-1008.692687988281	-481.421600341797	903.6939697265627	-1113.775756835938	-509.6800231933595	886.6763916015627	-1143.386962890625	-504.5723266601564	878.548034667969	-1087.015380859375	-339.2592773437501	603.0822143554689	-1286.964111328125	-254.8684387207032	586.6016235351564	-1287.810668945313	-226.7494659423829	623.3609008789064	-1287.630004882813	-227.8534545898438	535.9561767578126	-1269.0478515625	-128.1155395507813	471.539520263672	-1241.622192382813	-146.1366271972657	467.7932739257814	-1123.017944335938	-173.6455078125	269.2311401367188	-1173.180053710938	-247.9680938720704	261.3280029296876	-1224.170654296875	-215.1018371582032	240.3100891113282	-1198.60400390625	-253.0736389160157	174.2602691650391	-1157.566528320313	-354.1490783691407	124.7631454467774	-1175.749633789063	-323.0601501464844	140.2287902832032	-1091.78759765625	-429.1143188476564	100.6814575195313	-1124.582885742188	-216.334457397461	57.68984222412111	-1103.55029296875	-219.0980377197266	50.50400543212892	-1148.859252929688	-270.2912902832032	39.75529861450196	-1197.94287109375	-495.822967529297	533.3820190429689	-941.0112304687502	-485.0982360839845	466.8811645507814	-942.7402343750002	-454.6080017089845	456.2200927734376	-951.2957763671877	-541.3517456054689	406.7061157226564	-947.7293090820315	-582.8933105468751	303.6770019531251	-946.588317871094	-608.5933837890626	304.3745727539063	-1075.55126953125	-753.1810302734376	231.8761901855469	-952.2877197265627	-824.979675292969	300.9123229980469	-908.0330200195315	-830.4468383789065	255.5106201171876	-922.6658935546877	-882.130310058594	243.4954528808594	-949.6624145507815	-995.4538574218752	291.3130187988282	-905.8820800781252	-991.883239746094	286.5700988769532	-997.2352294921877	-1035.184692382813	366.7173156738282	-949.7036132812502	-1072.668334960938	153.6227569580078	-997.6846313476565	-1071.712768554688	146.1859283447266	-955.681823730469	-1093.078125	181.8150939941407	-901.0012207031252	nan	nan	nan	nan	nan	nan	
626	3.125	60.96071624755861	1345.191650390625	-1232.08984375	-65.04623413085939	1296.78369140625	-1271.0517578125	-116.5302810668946	1257.95751953125	-1138.439819335938	-132.1654815673828	1191.378173828125	-1189.05322265625	-362.0127258300782	1002.673767089844	-1135.0263671875	-60.57560348510744	1067.182495117188	-1190.32177734375	-65.29615783691408	1154.589111328125	-1318.864990234375	71.37857818603517	1101.281494140625	-1409.522094726563	102.1482543945313	1102.74755859375	-1371.755859375	134.9425659179688	1077.612548828125	-1417.323486328125	187.2223205566407	1042.997436523438	-1425.930419921875	168.5436096191407	984.310729980469	-1400.879760742188	nan	nan	nan	461.8775634765626	1013.957458496094	-1400.99462890625	557.7793579101564	1003.166809082031	-1339.368896484375	-45.50817489624024	1156.8388671875	-1073.65625	98.41563415527347	1080.864135742188	-997.2053833007815	125.7844924926758	1094.415771484375	-1035.405029296875	161.2444915771485	1052.844848632813	-1006.995422363281	219.2786407470704	1031.082153320313	-1024.070556640625	193.7773437500001	972.467468261719	-1066.97998046875	465.7613220214845	1031.7841796875	-1189.59814453125	481.4711303710939	1014.47021484375	-1117.175903320313	559.0432128906251	1030.874145507813	-1198.581909179688	-348.2106628417969	777.0690917968752	-1232.138671875	-354.1109924316407	754.5864257812501	-1008.735229492188	-481.4501953125001	904.205749511719	-1113.847045898438	-509.6048583984376	887.1655273437502	-1143.417846679688	-504.223114013672	879.0918579101565	-1087.196533203125	-339.3551330566407	603.6526489257814	-1287.309448242188	-254.9216308593751	587.0203857421876	-1288.158447265625	-226.7514801025391	623.8765869140626	-1288.040649414063	-227.9665679931641	536.5502319335939	-1269.383422851563	-128.2310943603516	471.772430419922	-1242.137939453125	-146.08056640625	468.2919921875001	-1123.591186523438	-173.9371795654297	269.3334350585938	-1173.82861328125	-248.4111328125001	261.6216430664063	-1224.795166015625	-215.4882202148438	240.6661376953126	-1199.32568359375	-253.2413330078126	174.4608001708985	-1158.246337890625	-354.2299194335938	124.6783294677735	-1176.106201171875	-322.8910217285157	140.2575836181641	-1092.273193359375	-429.145965576172	100.6676559448242	-1124.82421875	-216.298324584961	57.7700538635254	-1103.7509765625	-218.3666076660157	51.05025100708009	-1149.343505859375	-270.3630065917969	39.63909912109376	-1198.0439453125	-495.8084716796876	534.1653442382814	-941.1273193359377	-484.7668762207032	467.3438415527345	-942.8582153320315	-454.3371887207032	456.978240966797	-951.324401855469	-541.0828247070314	407.5647888183595	-947.9072875976565	-582.5802612304689	304.1781921386719	-946.8692626953127	-608.5322875976564	305.0183410644532	-1075.72216796875	-752.8630981445314	232.4696502685547	-952.377868652344	-824.8609008789065	300.9098510742188	-908.2412109375002	-830.3801879882815	255.4252166748047	-922.8664550781252	-882.084899902344	243.3643646240235	-949.701599121094	-995.3051757812502	290.9292907714844	-906.082702636719	-991.7127685546877	286.3728027343751	-997.4971923828127	-1035.256591796875	366.2514343261719	-949.9344482421877	-1072.288330078125	152.8800659179688	-997.991394042969	-1071.174560546875	146.1741790771485	-956.7839965820315	-1092.40966796875	182.06005859375	-900.962829589844	nan	nan	nan	nan	nan	nan	
627	3.13	60.52640533447267	1346.556396484375	-1232.149780273438	-65.40883636474611	1297.87451171875	-1271.075439453125	-116.9305648803711	1259.049072265625	-1138.40966796875	-132.3175354003907	1192.231811523438	-1189.174438476563	-362.1823730468751	1003.477600097656	-1134.989868164063	-60.76259994506837	1067.858276367188	-1190.311767578125	-66.07674407958986	1156.093994140625	-1319.003662109375	70.38665008544923	1102.577026367188	-1409.0771484375	101.2656402587891	1103.880126953125	-1371.318359375	134.4768524169922	1078.776245117188	-1417.25439453125	186.4962768554688	1044.562744140625	-1426.138305664063	168.2273101806641	985.6546020507815	-1400.84228515625	nan	nan	nan	462.7174377441407	1015.966186523438	-1402.090576171875	557.5951538085939	1004.633972167969	-1339.432495117188	-45.46823883056641	1158.225708007813	-1073.567626953125	97.92197418212893	1081.62841796875	-997.2740478515627	125.6375427246094	1095.428466796875	-1035.401000976563	160.9002990722657	1053.881958007813	-1006.804931640625	218.8540802001954	1032.506103515625	-1024.206420898438	193.6527862548829	974.324157714844	-1065.922119140625	465.1768493652345	1033.048583984375	-1189.411499023438	481.3854064941407	1015.556823730469	-1116.9189453125	558.8173828125001	1031.701049804688	-1198.373901367188	-347.9896850585938	777.7097778320315	-1232.201171875	-353.9876403808594	755.1226806640626	-1008.731323242188	-481.2055664062501	904.7994384765627	-1113.945068359375	-509.5659179687501	887.8413696289065	-1143.445190429688	-504.1810913085939	879.5124511718752	-1087.1982421875	-339.4189758300782	604.2013549804689	-1287.675170898438	-255.1448516845704	587.5434570312501	-1288.570190429688	-226.8905334472657	624.3015747070314	-1288.421142578125	-228.1810607910157	537.0241699218751	-1269.852905273438	-128.5087280273438	472.0344543457032	-1242.67333984375	-146.1754608154297	468.7259826660157	-1124.104370117188	-174.1736602783203	269.3502502441407	-1174.512329101563	-247.8350219726563	261.6301574707032	-1225.2705078125	-215.5317077636719	240.8457031250001	-1199.929443359375	-253.0441131591797	173.8933868408203	-1158.631958007813	-354.3619689941407	124.6668319702149	-1176.498779296875	-323.0006408691407	140.7327117919922	-1092.713256835938	-429.142791748047	100.7421264648438	-1124.96630859375	-216.3375244140626	57.92226409912111	-1103.90673828125	-219.311264038086	50.37098693847658	-1149.234619140625	-270.2938842773438	39.45681762695313	-1198.151123046875	-495.4071655273439	534.6762084960939	-941.3880615234377	-484.7806091308595	468.501922607422	-943.0195312500002	-454.397674560547	457.667694091797	-951.4243774414065	-541.1760864257814	408.1358642578126	-947.9868164062502	-582.3591918945314	304.8235473632813	-947.0706176757815	-608.3798217773439	305.5815429687501	-1075.837646484375	-752.7863159179689	232.2715911865235	-951.7827148437502	-824.772644042969	300.8269042968751	-908.4424438476565	-830.0400390625002	255.3365325927735	-923.1761474609377	-881.993835449219	243.5693359375001	-949.4316406250002	-995.2500000000002	290.5765075683594	-906.4337158203127	-991.5126953125002	286.0916137695313	-997.7490844726565	-1035.1787109375	365.9164733886719	-950.0856933593752	-1072.1220703125	152.9439239501953	-998.5438232421877	-1070.783569335938	145.605941772461	-957.405944824219	-1092.596801757813	181.1542358398438	-901.693298339844	nan	nan	nan	nan	nan	nan	
628	3.135	59.91036605834962	1347.923950195313	-1232.185180664063	-66.02031707763673	1299.0625	-1271.149780273438	-117.6741485595703	1260.3046875	-1138.487670898438	-132.4643859863282	1193.14453125	-1189.25341796875	-362.2097473144532	1004.286987304688	-1135.057006835938	-60.95531463623048	1069.14599609375	-1190.440551757813	-66.42176818847658	1157.098388671875	-1318.991577148438	70.58894348144533	1103.945068359375	-1409.599975585938	102.3667526245117	1104.704956054688	-1371.844116210938	134.5184936523438	1079.957275390625	-1417.263549804688	186.1614074707032	1045.893432617188	-1426.119262695313	168.1007537841797	986.9562988281252	-1401.123779296875	nan	nan	nan	461.8755493164064	1017.171203613281	-1401.518310546875	557.2891235351564	1006.182922363281	-1339.435668945313	-46.86344909667969	1158.454833984375	-1074.704223632813	97.90469360351565	1083.703247070313	-997.1910400390627	125.3611679077149	1096.675415039063	-1035.13720703125	160.8425903320313	1055.275024414063	-1006.578491210938	219.0359954833985	1034.066162109375	-1024.111328125	193.6483306884766	975.4475708007815	-1065.960083007813	464.991180419922	1033.787353515625	-1189.143188476563	481.1134033203126	1017.121887207031	-1116.67138671875	558.4151000976564	1032.581420898438	-1198.269775390625	-346.9728088378907	780.0760498046877	-1232.233764648438	-353.9463195800782	755.9526977539064	-1008.830810546875	-481.3121948242189	905.960632324219	-1113.874755859375	-509.7240295410157	888.9316406250002	-1143.633178710938	-504.3157348632814	879.8854980468752	-1087.08203125	-339.5360107421876	604.6952514648439	-1287.8447265625	-255.2193603515626	588.1331176757814	-1288.965698242188	-227.0731964111329	624.8889770507814	-1288.84033203125	-228.3883361816407	537.3906250000001	-1270.27880859375	-128.776123046875	471.8439941406251	-1243.393188476563	-146.3330078125	468.771209716797	-1124.511108398438	-174.1481323242188	269.2785644531251	-1175.220703125	-248.0519256591797	261.7857360839844	-1225.910766601563	-215.4202880859376	240.3045349121094	-1200.444702148438	-253.704574584961	174.6315002441407	-1159.186279296875	-354.5801696777344	124.828353881836	-1176.89111328125	-323.0252075195313	140.8935699462891	-1093.100830078125	-428.8909606933595	101.0075454711914	-1124.999145507813	-216.5136108398438	58.03551864624025	-1104.013671875	-218.3791961669922	51.0065040588379	-1149.869018554688	-270.3299865722657	39.26189422607423	-1198.224975585938	-495.3412475585939	535.3689575195314	-941.512145996094	-484.801971435547	468.9559020996095	-943.0736083984377	-454.5137939453126	458.099578857422	-951.553894042969	-540.8389282226564	408.7603149414064	-948.1097412109377	-582.1536865234376	305.6148986816407	-947.1080322265627	-607.7471923828126	306.0696716308594	-1075.869506835938	-752.6450195312501	232.5176391601563	-951.886901855469	-824.5274658203127	300.6047668457032	-908.6414794921877	-829.9746704101565	255.3445739746094	-923.320251464844	-881.9797973632815	243.7398986816407	-949.3168945312502	-995.1920166015627	290.2602539062501	-906.6697387695315	-991.3320922851565	285.9331359863282	-998.0837402343752	-1035.067504882813	365.6443176269532	-950.3630981445315	-1071.669677734375	152.1382598876953	-998.7759399414065	-1070.444946289063	145.1434020996094	-957.719177246094	-1091.89892578125	181.0890045166016	-901.822204589844	nan	nan	nan	nan	nan	nan	
